REM DIRINDEX 1\5,1\2\6,1\2\7,1\3\8,1\3\9,1\4\10,1\4\11,1\4\12
REM DIRNAME cjc026,folder01,folder02,folder03,folder04,folder05,folder06,folder07,folder08,folder09,folder10,folder11
TITLE ""
FILE "EJE_DB3000_5th_6C_51.mp3" MP3
  TRACK 01 AUDIO
    TITLE "0:"
    INDEX 01 00:00:00
  TRACK 02 AUDIO
    TITLE "10:cjc026_12141"
    INDEX 01 00:00:08
  TRACK 03 AUDIO
    TITLE "0:"
    INDEX 01 00:01:43
  TRACK 04 AUDIO
    TITLE "11:cjc026_12142"
    INDEX 01 00:02:06
  TRACK 05 AUDIO
    TITLE "0:"
    INDEX 01 00:03:74
  TRACK 06 AUDIO
    TITLE "12:cjc026_12143"
    INDEX 01 00:04:32
  TRACK 07 AUDIO
    TITLE "0:"
    INDEX 01 00:05:67
  TRACK 08 AUDIO
    TITLE "10:cjc026_12144"
    INDEX 01 00:06:30
  TRACK 09 AUDIO
    TITLE "0:"
    INDEX 01 00:07:69
  TRACK 10 AUDIO
    TITLE "11:cjc026_12145"
    INDEX 01 00:08:29
  TRACK 11 AUDIO
    TITLE "0:"
    INDEX 01 00:10:27
  TRACK 12 AUDIO
    TITLE "12:cjc026_12146"
    INDEX 01 00:10:62
  TRACK 13 AUDIO
    TITLE "0:"
    INDEX 01 00:12:26
  TRACK 14 AUDIO
    TITLE "10:cjc026_12147"
    INDEX 01 00:12:58
  TRACK 15 AUDIO
    TITLE "0:"
    INDEX 01 00:14:24
  TRACK 16 AUDIO
    TITLE "11:cjc026_12148"
    INDEX 01 00:14:59
  TRACK 17 AUDIO
    TITLE "0:"
    INDEX 01 00:16:50
  TRACK 18 AUDIO
    TITLE "12:cjc026_12149"
    INDEX 01 00:17:07
  TRACK 19 AUDIO
    TITLE "0:"
    INDEX 01 00:18:48
  TRACK 20 AUDIO
    TITLE "10:cjc026_12150"
    INDEX 01 00:19:08
  TRACK 21 AUDIO
    TITLE "0:"
    INDEX 01 00:20:66
  TRACK 22 AUDIO
    TITLE "11:cjc026_12151"
    INDEX 01 00:21:26
  TRACK 23 AUDIO
    TITLE "0:"
    INDEX 01 00:23:21
  TRACK 24 AUDIO
    TITLE "12:cjc026_12152"
    INDEX 01 00:23:54
  TRACK 25 AUDIO
    TITLE "0:"
    INDEX 01 00:25:36
  TRACK 26 AUDIO
    TITLE "10:cjc026_12153"
    INDEX 01 00:25:74
  TRACK 27 AUDIO
    TITLE "0:"
    INDEX 01 00:29:66
  TRACK 28 AUDIO
    TITLE "11:cjc026_12154"
    INDEX 01 00:30:26
  TRACK 29 AUDIO
    TITLE "0:"
    INDEX 01 00:32:30
  TRACK 30 AUDIO
    TITLE "12:cjc026_12155"
    INDEX 01 00:32:65
  TRACK 31 AUDIO
    TITLE "0:"
    INDEX 01 00:36:54
  TRACK 32 AUDIO
    TITLE "10:cjc026_12156"
    INDEX 01 00:37:16
  TRACK 33 AUDIO
    TITLE "0:"
    INDEX 01 00:38:74
  TRACK 34 AUDIO
    TITLE "11:cjc026_12157"
    INDEX 01 00:39:34
  TRACK 35 AUDIO
    TITLE "0:"
    INDEX 01 00:41:40
  TRACK 36 AUDIO
    TITLE "12:cjc026_12158"
    INDEX 01 00:42:03
  TRACK 37 AUDIO
    TITLE "0:"
    INDEX 01 00:43:60
  TRACK 38 AUDIO
    TITLE "10:cjc026_12159"
    INDEX 01 00:44:21
  TRACK 39 AUDIO
    TITLE "0:"
    INDEX 01 00:45:64
  TRACK 40 AUDIO
    TITLE "11:cjc026_12160"
    INDEX 01 00:46:30
  TRACK 41 AUDIO
    TITLE "0:"
    INDEX 01 00:48:36
  TRACK 42 AUDIO
    TITLE "12:cjc026_12161"
    INDEX 01 00:48:72
  TRACK 43 AUDIO
    TITLE "0:"
    INDEX 01 00:50:40
  TRACK 44 AUDIO
    TITLE "10:cjc026_12162"
    INDEX 01 00:51:06
  TRACK 45 AUDIO
    TITLE "0:"
    INDEX 01 00:52:52
  TRACK 46 AUDIO
    TITLE "11:cjc026_12163"
    INDEX 01 00:53:15
  TRACK 47 AUDIO
    TITLE "0:"
    INDEX 01 00:55:38
  TRACK 48 AUDIO
    TITLE "12:cjc026_12164"
    INDEX 01 00:55:73
  TRACK 49 AUDIO
    TITLE "0:"
    INDEX 01 00:57:47
  TRACK 50 AUDIO
    TITLE "10:cjc026_12165"
    INDEX 01 00:58:10
  TRACK 51 AUDIO
    TITLE "0:"
    INDEX 01 00:59:59
  TRACK 52 AUDIO
    TITLE "11:cjc026_12166"
    INDEX 01 01:00:25
  TRACK 53 AUDIO
    TITLE "0:"
    INDEX 01 01:02:31
  TRACK 54 AUDIO
    TITLE "12:cjc026_12167"
    INDEX 01 01:02:66
  TRACK 55 AUDIO
    TITLE "0:"
    INDEX 01 01:04:43
  TRACK 56 AUDIO
    TITLE "10:cjc026_12168"
    INDEX 01 01:05:06
  TRACK 57 AUDIO
    TITLE "0:"
    INDEX 01 01:06:42
  TRACK 58 AUDIO
    TITLE "11:cjc026_12169"
    INDEX 01 01:07:05
  TRACK 59 AUDIO
    TITLE "0:"
    INDEX 01 01:09:46
  TRACK 60 AUDIO
    TITLE "12:cjc026_12170"
    INDEX 01 01:10:04
  TRACK 61 AUDIO
    TITLE "0:"
    INDEX 01 01:11:42
  TRACK 62 AUDIO
    TITLE "10:cjc026_12171"
    INDEX 01 01:12:05
  TRACK 63 AUDIO
    TITLE "0:"
    INDEX 01 01:13:30
  TRACK 64 AUDIO
    TITLE "11:cjc026_12172"
    INDEX 01 01:14:01
  TRACK 65 AUDIO
    TITLE "0:"
    INDEX 01 01:15:71
  TRACK 66 AUDIO
    TITLE "12:cjc026_12173"
    INDEX 01 01:16:32
  TRACK 67 AUDIO
    TITLE "0:"
    INDEX 01 01:17:59
